<mxfile host="Electron" modified="2024-02-06T05:00:11.316Z" agent="Mozilla/5.0 (X11; Linux x86_64) AppleWebKit/537.36 (KHTML, like Gecko) draw.io/22.1.21 Chrome/120.0.6099.109 Electron/28.1.0 Safari/537.36" etag="_nnMo74uWdpYw2B-cpTE" version="22.1.21" type="device">
  <diagram name="Page-1" id="lv2RBA-2qfxnkMvO_x3A">
    <mxGraphModel dx="584" dy="907" grid="1" gridSize="10" guides="1" tooltips="1" connect="1" arrows="1" fold="1" page="1" pageScale="1" pageWidth="850" pageHeight="1100" math="0" shadow="0">
      <root>
        <mxCell id="0" />
        <mxCell id="1" parent="0" />
        <mxCell id="O5-8CPs11LgDphCisBiJ-3" value="" style="group;fillColor=#232136;strokeColor=#232136;strokeWidth=22;" vertex="1" connectable="0" parent="1">
          <mxGeometry x="1000.5899999999999" y="313" width="512.51" height="435" as="geometry" />
        </mxCell>
        <mxCell id="4REqOIB7tcGAyymllORO-14" style="edgeStyle=orthogonalEdgeStyle;shape=connector;curved=0;rounded=0;orthogonalLoop=1;jettySize=auto;html=1;exitX=0;exitY=0.5;exitDx=0;exitDy=0;labelBackgroundColor=default;strokeColor=#DB918D;strokeWidth=3;align=center;verticalAlign=middle;fontFamily=Helvetica;fontSize=11;fontColor=#FFFFFF;endArrow=none;endFill=0;startArrow=openThin;startFill=0;fontStyle=0" parent="O5-8CPs11LgDphCisBiJ-3" source="4REqOIB7tcGAyymllORO-15" edge="1">
          <mxGeometry relative="1" as="geometry">
            <mxPoint x="1.1000000000001364" y="142" as="targetPoint" />
          </mxGeometry>
        </mxCell>
        <mxCell id="4REqOIB7tcGAyymllORO-15" value="&lt;b style=&quot;border-color: var(--border-color);&quot;&gt;&lt;font style=&quot;border-color: var(--border-color);&quot;&gt;locations:&lt;/font&gt;&lt;/b&gt;" style="rounded=1;whiteSpace=wrap;html=1;strokeColor=#DB918D;fontFamily=Helvetica;fontSize=12;fontColor=#FFFFFF;fillColor=none;arcSize=50;fontStyle=0;shadow=0;labelBackgroundColor=none;align=center;verticalAlign=middle;strokeWidth=3;container=0;" parent="O5-8CPs11LgDphCisBiJ-3" vertex="1">
          <mxGeometry x="82.03999999999996" y="127" width="78.76" height="30" as="geometry" />
        </mxCell>
        <mxCell id="4REqOIB7tcGAyymllORO-19" value="&lt;font size=&quot;1&quot;&gt;&lt;b style=&quot;font-size: 12px;&quot;&gt;Locations&lt;/b&gt;&lt;/font&gt;" style="text;html=1;strokeColor=none;fillColor=none;align=left;verticalAlign=middle;whiteSpace=wrap;rounded=0;fontSize=11;fontFamily=Helvetica;fontColor=#FFFFFF;fontStyle=0;container=0;" parent="O5-8CPs11LgDphCisBiJ-3" vertex="1">
          <mxGeometry x="1.8000000000000682" y="117" width="60" height="30" as="geometry" />
        </mxCell>
        <mxCell id="4REqOIB7tcGAyymllORO-65" style="edgeStyle=orthogonalEdgeStyle;shape=connector;curved=0;rounded=1;orthogonalLoop=1;jettySize=auto;html=1;exitX=1;exitY=0.5;exitDx=0;exitDy=0;labelBackgroundColor=default;strokeColor=#DB918D;strokeWidth=3;align=center;verticalAlign=middle;fontFamily=Helvetica;fontSize=11;fontColor=#FFFFFF;startArrow=none;startFill=0;endArrow=none;endFill=0;fontStyle=0" parent="O5-8CPs11LgDphCisBiJ-3" source="4REqOIB7tcGAyymllORO-50" edge="1">
          <mxGeometry relative="1" as="geometry">
            <mxPoint x="499.4100000000001" y="144" as="targetPoint" />
            <Array as="points">
              <mxPoint x="479.4100000000001" y="119" />
              <mxPoint x="479.4100000000001" y="144" />
            </Array>
          </mxGeometry>
        </mxCell>
        <mxCell id="4REqOIB7tcGAyymllORO-50" value="&lt;b style=&quot;border-color: var(--border-color);&quot;&gt;&lt;font style=&quot;border-color: var(--border-color);&quot;&gt;Locations&lt;/font&gt;&lt;/b&gt;" style="rounded=1;whiteSpace=wrap;html=1;strokeColor=#DB918D;fontFamily=Helvetica;fontSize=12;fontColor=#FFFFFF;fillColor=none;arcSize=0;fontStyle=0;shadow=0;labelBackgroundColor=none;container=0;strokeWidth=3;" parent="O5-8CPs11LgDphCisBiJ-3" vertex="1">
          <mxGeometry x="358.0899999999997" y="104" width="80.34" height="30" as="geometry" />
        </mxCell>
        <mxCell id="4REqOIB7tcGAyymllORO-55" style="edgeStyle=orthogonalEdgeStyle;shape=connector;curved=0;rounded=1;orthogonalLoop=1;jettySize=auto;html=1;exitX=1;exitY=0.5;exitDx=0;exitDy=0;entryX=0;entryY=0.5;entryDx=0;entryDy=0;labelBackgroundColor=default;strokeColor=#DB918D;strokeWidth=3;align=center;verticalAlign=middle;fontFamily=Helvetica;fontSize=11;fontColor=#FFFFFF;startArrow=none;startFill=0;endArrow=openThin;endFill=0;fontStyle=0" parent="O5-8CPs11LgDphCisBiJ-3" source="4REqOIB7tcGAyymllORO-51" target="4REqOIB7tcGAyymllORO-50" edge="1">
          <mxGeometry relative="1" as="geometry">
            <Array as="points">
              <mxPoint x="309.4100000000001" y="142" />
              <mxPoint x="309.4100000000001" y="119" />
            </Array>
          </mxGeometry>
        </mxCell>
        <mxCell id="4REqOIB7tcGAyymllORO-51" value="&lt;p&gt;&lt;font&gt;&lt;b&gt;location-name:&lt;/b&gt;&lt;/font&gt;&lt;/p&gt;" style="rounded=1;whiteSpace=wrap;html=1;arcSize=50;fontStyle=0;fillColor=none;strokeColor=#DB918D;labelBackgroundColor=none;fontColor=#FFFFFF;container=0;strokeWidth=3;" parent="O5-8CPs11LgDphCisBiJ-3" vertex="1">
          <mxGeometry x="185.0961111111112" y="127" width="107.5" height="30" as="geometry" />
        </mxCell>
        <mxCell id="4REqOIB7tcGAyymllORO-53" value="" style="edgeStyle=orthogonalEdgeStyle;shape=connector;curved=0;rounded=0;orthogonalLoop=1;jettySize=auto;html=1;labelBackgroundColor=default;strokeColor=#DB918D;strokeWidth=3;align=center;verticalAlign=middle;fontFamily=Helvetica;fontSize=11;fontColor=#FFFFFF;startArrow=none;startFill=0;endArrow=openThin;endFill=0;fontStyle=0" parent="O5-8CPs11LgDphCisBiJ-3" source="4REqOIB7tcGAyymllORO-15" target="4REqOIB7tcGAyymllORO-51" edge="1">
          <mxGeometry relative="1" as="geometry">
            <Array as="points">
              <mxPoint x="169.41000000000008" y="142" />
              <mxPoint x="169.41000000000008" y="142" />
            </Array>
          </mxGeometry>
        </mxCell>
        <mxCell id="4REqOIB7tcGAyymllORO-64" style="edgeStyle=orthogonalEdgeStyle;shape=connector;curved=0;rounded=1;orthogonalLoop=1;jettySize=auto;html=1;exitX=1;exitY=0.5;exitDx=0;exitDy=0;labelBackgroundColor=default;strokeColor=#DB918D;strokeWidth=3;align=center;verticalAlign=middle;fontFamily=Helvetica;fontSize=11;fontColor=#FFFFFF;startArrow=none;startFill=0;endArrow=openThin;endFill=0;entryX=-0.004;entryY=0.719;entryDx=0;entryDy=0;entryPerimeter=0;fontStyle=0" parent="O5-8CPs11LgDphCisBiJ-3" source="4REqOIB7tcGAyymllORO-54" edge="1">
          <mxGeometry relative="1" as="geometry">
            <mxPoint x="510.93000000000006" y="143.83000000000004" as="targetPoint" />
            <Array as="points">
              <mxPoint x="479.4100000000001" y="168" />
              <mxPoint x="479.4100000000001" y="144" />
              <mxPoint x="511.4100000000001" y="144" />
            </Array>
          </mxGeometry>
        </mxCell>
        <mxCell id="4REqOIB7tcGAyymllORO-54" value="&lt;b style=&quot;border-color: var(--border-color);&quot;&gt;&lt;font style=&quot;border-color: var(--border-color);&quot;&gt;Data Requirements&lt;/font&gt;&lt;/b&gt;" style="rounded=1;whiteSpace=wrap;html=1;strokeColor=#DB918D;fontFamily=Helvetica;fontSize=12;fontColor=#FFFFFF;fillColor=none;arcSize=0;fontStyle=0;shadow=0;labelBackgroundColor=none;container=0;strokeWidth=3;" parent="O5-8CPs11LgDphCisBiJ-3" vertex="1">
          <mxGeometry x="331.41999999999985" y="153" width="133.68" height="30" as="geometry" />
        </mxCell>
        <mxCell id="4REqOIB7tcGAyymllORO-56" style="edgeStyle=orthogonalEdgeStyle;shape=connector;curved=0;rounded=1;orthogonalLoop=1;jettySize=auto;html=1;exitX=1;exitY=0.5;exitDx=0;exitDy=0;entryX=0;entryY=0.5;entryDx=0;entryDy=0;labelBackgroundColor=default;strokeColor=#DB918D;strokeWidth=3;align=center;verticalAlign=middle;fontFamily=Helvetica;fontSize=11;fontColor=#FFFFFF;startArrow=none;startFill=0;endArrow=openThin;endFill=0;fontStyle=0" parent="O5-8CPs11LgDphCisBiJ-3" source="4REqOIB7tcGAyymllORO-51" target="4REqOIB7tcGAyymllORO-54" edge="1">
          <mxGeometry relative="1" as="geometry">
            <Array as="points">
              <mxPoint x="309.4100000000001" y="142" />
              <mxPoint x="309.4100000000001" y="168" />
            </Array>
          </mxGeometry>
        </mxCell>
        <mxCell id="4REqOIB7tcGAyymllORO-2" style="edgeStyle=orthogonalEdgeStyle;shape=connector;curved=0;rounded=0;orthogonalLoop=1;jettySize=auto;html=1;exitX=0;exitY=0.5;exitDx=0;exitDy=0;labelBackgroundColor=default;strokeColor=#DB918D;strokeWidth=3;align=center;verticalAlign=middle;fontFamily=Helvetica;fontSize=11;fontColor=#FFFFFF;endArrow=none;endFill=0;startArrow=openThin;startFill=0;fontStyle=0" parent="O5-8CPs11LgDphCisBiJ-3" source="4REqOIB7tcGAyymllORO-3" edge="1">
          <mxGeometry relative="1" as="geometry">
            <mxPoint x="1.2550000000001091" y="15" as="targetPoint" />
          </mxGeometry>
        </mxCell>
        <mxCell id="4REqOIB7tcGAyymllORO-3" value="&lt;b style=&quot;border-color: var(--border-color);&quot;&gt;&lt;font style=&quot;border-color: var(--border-color);&quot;&gt;Application&lt;/font&gt;&lt;/b&gt;" style="rounded=1;whiteSpace=wrap;html=1;strokeColor=#DB918D;fontFamily=Helvetica;fontSize=12;fontColor=#FFFFFF;fillColor=none;arcSize=0;fontStyle=0;shadow=0;labelBackgroundColor=none;align=center;verticalAlign=top;strokeWidth=3;container=0;" parent="O5-8CPs11LgDphCisBiJ-3" vertex="1">
          <mxGeometry x="124.25500000000011" width="95" height="30" as="geometry" />
        </mxCell>
        <mxCell id="4REqOIB7tcGAyymllORO-4" style="edgeStyle=orthogonalEdgeStyle;shape=connector;curved=0;rounded=0;orthogonalLoop=1;jettySize=auto;html=1;exitX=1;exitY=0.5;exitDx=0;exitDy=0;labelBackgroundColor=default;strokeColor=#DB918D;strokeWidth=3;align=center;verticalAlign=middle;fontFamily=Helvetica;fontSize=11;fontColor=#FFFFFF;endArrow=openThin;endFill=0;fontStyle=0" parent="O5-8CPs11LgDphCisBiJ-3" source="4REqOIB7tcGAyymllORO-5" edge="1">
          <mxGeometry relative="1" as="geometry">
            <mxPoint x="511.2550000000001" y="15" as="targetPoint" />
          </mxGeometry>
        </mxCell>
        <mxCell id="4REqOIB7tcGAyymllORO-5" value="&lt;b style=&quot;border-color: var(--border-color);&quot;&gt;&lt;font style=&quot;border-color: var(--border-color);&quot;&gt;Locations&lt;/font&gt;&lt;/b&gt;" style="rounded=1;whiteSpace=wrap;html=1;strokeColor=#DB918D;fontFamily=Helvetica;fontSize=12;fontColor=#FFFFFF;fillColor=none;arcSize=0;fontStyle=0;shadow=0;labelBackgroundColor=none;verticalAlign=top;strokeWidth=3;container=0;" parent="O5-8CPs11LgDphCisBiJ-3" vertex="1">
          <mxGeometry x="294.2550000000001" width="95" height="30" as="geometry" />
        </mxCell>
        <mxCell id="4REqOIB7tcGAyymllORO-6" style="edgeStyle=orthogonalEdgeStyle;shape=connector;curved=0;rounded=0;orthogonalLoop=1;jettySize=auto;html=1;exitX=1;exitY=0.5;exitDx=0;exitDy=0;labelBackgroundColor=default;strokeColor=#DB918D;strokeWidth=3;align=center;verticalAlign=middle;fontFamily=Helvetica;fontSize=11;fontColor=#FFFFFF;endArrow=openThin;endFill=0;fontStyle=0" parent="O5-8CPs11LgDphCisBiJ-3" source="4REqOIB7tcGAyymllORO-3" target="4REqOIB7tcGAyymllORO-5" edge="1">
          <mxGeometry relative="1" as="geometry" />
        </mxCell>
        <mxCell id="MEt0MIwIxQcFvyBTdbw6-34" style="edgeStyle=orthogonalEdgeStyle;shape=connector;curved=0;rounded=0;orthogonalLoop=1;jettySize=auto;html=1;exitX=0;exitY=0.5;exitDx=0;exitDy=0;labelBackgroundColor=default;strokeColor=#DB918D;strokeWidth=3;align=center;verticalAlign=middle;fontFamily=Helvetica;fontSize=11;fontColor=#FFFFFF;endArrow=none;endFill=0;startArrow=openThin;startFill=0;fontStyle=0" parent="O5-8CPs11LgDphCisBiJ-3" source="MEt0MIwIxQcFvyBTdbw6-35" edge="1">
          <mxGeometry relative="1" as="geometry">
            <mxPoint x="1.1000000000001364" y="61" as="targetPoint" />
          </mxGeometry>
        </mxCell>
        <mxCell id="MEt0MIwIxQcFvyBTdbw6-35" value="&lt;b style=&quot;border-color: var(--border-color);&quot;&gt;&lt;font style=&quot;border-color: var(--border-color);&quot;&gt;application:&lt;/font&gt;&lt;/b&gt;" style="rounded=1;whiteSpace=wrap;html=1;strokeColor=#DB918D;fontFamily=Helvetica;fontSize=12;fontColor=#FFFFFF;fillColor=none;arcSize=50;fontStyle=0;shadow=0;labelBackgroundColor=none;align=center;verticalAlign=middle;strokeWidth=3;container=0;" parent="O5-8CPs11LgDphCisBiJ-3" vertex="1">
          <mxGeometry x="82.03999999999996" y="46" width="78.76" height="30" as="geometry" />
        </mxCell>
        <mxCell id="MEt0MIwIxQcFvyBTdbw6-36" style="edgeStyle=orthogonalEdgeStyle;shape=connector;curved=0;rounded=0;orthogonalLoop=1;jettySize=auto;html=1;exitX=1;exitY=0.5;exitDx=0;exitDy=0;labelBackgroundColor=default;strokeColor=#DB918D;strokeWidth=3;align=center;verticalAlign=middle;fontFamily=Helvetica;fontSize=11;fontColor=#FFFFFF;endArrow=openThin;endFill=0;fontStyle=0" parent="O5-8CPs11LgDphCisBiJ-3" source="MEt0MIwIxQcFvyBTdbw6-46" edge="1">
          <mxGeometry relative="1" as="geometry">
            <mxPoint x="511.4100000000001" y="61" as="targetPoint" />
            <mxPoint x="497.410000000001" y="61" as="sourcePoint" />
            <Array as="points" />
          </mxGeometry>
        </mxCell>
        <mxCell id="MEt0MIwIxQcFvyBTdbw6-37" value="&lt;b style=&quot;border-color: var(--border-color);&quot;&gt;&lt;font style=&quot;border-color: var(--border-color);&quot;&gt;name:&lt;/font&gt;&lt;/b&gt;" style="rounded=1;whiteSpace=wrap;html=1;strokeColor=#DB918D;fontFamily=Helvetica;fontSize=12;fontColor=#FFFFFF;fillColor=none;arcSize=50;fontStyle=0;shadow=0;labelBackgroundColor=none;verticalAlign=middle;strokeWidth=3;container=0;" parent="O5-8CPs11LgDphCisBiJ-3" vertex="1">
          <mxGeometry x="180.10000000000014" y="46" width="55.31" height="30" as="geometry" />
        </mxCell>
        <mxCell id="MEt0MIwIxQcFvyBTdbw6-38" style="edgeStyle=orthogonalEdgeStyle;shape=connector;curved=0;rounded=0;orthogonalLoop=1;jettySize=auto;html=1;exitX=1;exitY=0.5;exitDx=0;exitDy=0;labelBackgroundColor=default;strokeColor=#DB918D;strokeWidth=3;align=center;verticalAlign=middle;fontFamily=Helvetica;fontSize=11;fontColor=#FFFFFF;endArrow=openThin;endFill=0;fontStyle=0" parent="O5-8CPs11LgDphCisBiJ-3" source="MEt0MIwIxQcFvyBTdbw6-35" target="MEt0MIwIxQcFvyBTdbw6-37" edge="1">
          <mxGeometry relative="1" as="geometry">
            <Array as="points">
              <mxPoint x="191.41000000000008" y="61" />
              <mxPoint x="191.41000000000008" y="61" />
            </Array>
          </mxGeometry>
        </mxCell>
        <mxCell id="MEt0MIwIxQcFvyBTdbw6-39" value="&lt;font size=&quot;1&quot;&gt;&lt;b style=&quot;font-size: 12px;&quot;&gt;Application&lt;/b&gt;&lt;/font&gt;" style="text;html=1;strokeColor=none;fillColor=none;align=center;verticalAlign=middle;whiteSpace=wrap;rounded=0;fontSize=11;fontFamily=Helvetica;fontColor=#FFFFFF;fontStyle=0;container=0;" parent="O5-8CPs11LgDphCisBiJ-3" vertex="1">
          <mxGeometry x="4.800000000000068" y="36" width="60" height="30" as="geometry" />
        </mxCell>
        <mxCell id="MEt0MIwIxQcFvyBTdbw6-42" value="" style="edgeStyle=orthogonalEdgeStyle;shape=connector;curved=0;rounded=0;orthogonalLoop=1;jettySize=auto;html=1;exitX=1;exitY=0.5;exitDx=0;exitDy=0;labelBackgroundColor=default;strokeColor=#DB918D;strokeWidth=3;align=center;verticalAlign=middle;fontFamily=Helvetica;fontSize=11;fontColor=#FFFFFF;endArrow=openThin;endFill=0;fontStyle=0" parent="O5-8CPs11LgDphCisBiJ-3" source="MEt0MIwIxQcFvyBTdbw6-37" target="MEt0MIwIxQcFvyBTdbw6-41" edge="1">
          <mxGeometry relative="1" as="geometry">
            <mxPoint x="511.10000000000014" y="61" as="targetPoint" />
            <mxPoint x="251.41000000000008" y="61" as="sourcePoint" />
            <Array as="points">
              <mxPoint x="251.41000000000008" y="61" />
              <mxPoint x="251.41000000000008" y="61" />
            </Array>
          </mxGeometry>
        </mxCell>
        <mxCell id="MEt0MIwIxQcFvyBTdbw6-45" style="edgeStyle=orthogonalEdgeStyle;shape=connector;curved=0;rounded=1;orthogonalLoop=1;jettySize=auto;html=1;labelBackgroundColor=default;strokeColor=#DB918D;strokeWidth=3;align=center;verticalAlign=middle;fontFamily=Helvetica;fontSize=11;fontColor=#FFFFFF;endArrow=none;endFill=0;fontStyle=0" parent="O5-8CPs11LgDphCisBiJ-3" source="MEt0MIwIxQcFvyBTdbw6-41" edge="1">
          <mxGeometry relative="1" as="geometry">
            <mxPoint x="501.4100000000001" y="61" as="targetPoint" />
            <Array as="points">
              <mxPoint x="314.4100000000001" y="61" />
              <mxPoint x="314.4100000000001" y="86" />
              <mxPoint x="491.4100000000001" y="86" />
              <mxPoint x="491.4100000000001" y="61" />
            </Array>
          </mxGeometry>
        </mxCell>
        <mxCell id="MEt0MIwIxQcFvyBTdbw6-41" value="&lt;b style=&quot;border-color: var(--border-color);&quot;&gt;&lt;font style=&quot;border-color: var(--border-color);&quot;&gt;String&lt;/font&gt;&lt;/b&gt;" style="ellipse;whiteSpace=wrap;html=1;rounded=1;labelBackgroundColor=none;strokeColor=#DB918D;fontFamily=Helvetica;fontSize=12;fontColor=#FFFFFF;fillColor=none;container=0;strokeWidth=3;fontStyle=0" parent="O5-8CPs11LgDphCisBiJ-3" vertex="1">
          <mxGeometry x="253.58000000000015" y="46" width="50.83" height="30" as="geometry" />
        </mxCell>
        <mxCell id="MEt0MIwIxQcFvyBTdbw6-44" value="" style="edgeStyle=orthogonalEdgeStyle;shape=connector;curved=0;rounded=0;orthogonalLoop=1;jettySize=auto;html=1;exitX=1;exitY=0.5;exitDx=0;exitDy=0;labelBackgroundColor=default;strokeColor=#DB918D;strokeWidth=3;align=center;verticalAlign=middle;fontFamily=Helvetica;fontSize=11;fontColor=#FFFFFF;endArrow=openThin;endFill=0;fontStyle=0" parent="O5-8CPs11LgDphCisBiJ-3" source="MEt0MIwIxQcFvyBTdbw6-41" target="MEt0MIwIxQcFvyBTdbw6-43" edge="1">
          <mxGeometry relative="1" as="geometry">
            <mxPoint x="511.10000000000014" y="61" as="targetPoint" />
            <mxPoint x="321.4100000000001" y="61" as="sourcePoint" />
            <Array as="points">
              <mxPoint x="321.4100000000001" y="61" />
              <mxPoint x="321.4100000000001" y="61" />
            </Array>
          </mxGeometry>
        </mxCell>
        <mxCell id="MEt0MIwIxQcFvyBTdbw6-43" value="&lt;b style=&quot;border-color: var(--border-color);&quot;&gt;&lt;font style=&quot;border-color: var(--border-color);&quot;&gt;description:&lt;/font&gt;&lt;/b&gt;" style="rounded=1;whiteSpace=wrap;html=1;strokeColor=#DB918D;fontFamily=Helvetica;fontSize=12;fontColor=#FFFFFF;fillColor=none;arcSize=50;fontStyle=0;shadow=0;labelBackgroundColor=none;verticalAlign=middle;strokeWidth=3;container=0;" parent="O5-8CPs11LgDphCisBiJ-3" vertex="1">
          <mxGeometry x="329.4100000000001" y="46" width="85" height="30" as="geometry" />
        </mxCell>
        <mxCell id="MEt0MIwIxQcFvyBTdbw6-47" value="" style="edgeStyle=orthogonalEdgeStyle;shape=connector;curved=0;rounded=0;orthogonalLoop=1;jettySize=auto;html=1;exitX=1;exitY=0.5;exitDx=0;exitDy=0;labelBackgroundColor=default;strokeColor=#DB918D;strokeWidth=3;align=center;verticalAlign=middle;fontFamily=Helvetica;fontSize=11;fontColor=#FFFFFF;endArrow=openThin;endFill=0;fontStyle=0" parent="O5-8CPs11LgDphCisBiJ-3" source="MEt0MIwIxQcFvyBTdbw6-43" target="MEt0MIwIxQcFvyBTdbw6-46" edge="1">
          <mxGeometry relative="1" as="geometry">
            <mxPoint x="511.10000000000014" y="61" as="targetPoint" />
            <mxPoint x="431.4100000000001" y="61" as="sourcePoint" />
            <Array as="points">
              <mxPoint x="431.4100000000001" y="61" />
              <mxPoint x="431.4100000000001" y="61" />
            </Array>
          </mxGeometry>
        </mxCell>
        <mxCell id="MEt0MIwIxQcFvyBTdbw6-46" value="&lt;b style=&quot;border-color: var(--border-color);&quot;&gt;&lt;font style=&quot;border-color: var(--border-color);&quot;&gt;String&lt;/font&gt;&lt;/b&gt;" style="ellipse;whiteSpace=wrap;html=1;rounded=1;labelBackgroundColor=none;strokeColor=#DB918D;fontFamily=Helvetica;fontSize=12;fontColor=#FFFFFF;fillColor=none;container=0;strokeWidth=3;fontStyle=0" parent="O5-8CPs11LgDphCisBiJ-3" vertex="1">
          <mxGeometry x="432.4100000000001" y="46" width="54" height="30" as="geometry" />
        </mxCell>
        <mxCell id="4REqOIB7tcGAyymllORO-69" style="edgeStyle=orthogonalEdgeStyle;shape=connector;curved=0;rounded=0;orthogonalLoop=1;jettySize=auto;html=1;exitX=0;exitY=0.5;exitDx=0;exitDy=0;labelBackgroundColor=default;strokeColor=#DB918D;strokeWidth=3;align=center;verticalAlign=middle;fontFamily=Helvetica;fontSize=11;fontColor=#FFFFFF;endArrow=none;endFill=0;startArrow=openThin;startFill=0;fontStyle=0" parent="O5-8CPs11LgDphCisBiJ-3" source="4REqOIB7tcGAyymllORO-70" edge="1">
          <mxGeometry relative="1" as="geometry">
            <mxPoint x="1.3000000000000682" y="225" as="targetPoint" />
          </mxGeometry>
        </mxCell>
        <mxCell id="4REqOIB7tcGAyymllORO-70" value="&lt;font&gt;&lt;b&gt;data-requirements:&lt;/b&gt;&lt;/font&gt;" style="rounded=1;whiteSpace=wrap;html=1;strokeColor=#DB918D;fontFamily=Helvetica;fontSize=12;fontColor=#FFFFFF;fillColor=none;arcSize=50;fontStyle=0;shadow=0;labelBackgroundColor=none;align=center;verticalAlign=middle;strokeWidth=3;container=0;" parent="O5-8CPs11LgDphCisBiJ-3" vertex="1">
          <mxGeometry x="92.06999999999994" y="210" width="120" height="30" as="geometry" />
        </mxCell>
        <mxCell id="4REqOIB7tcGAyymllORO-71" value="&lt;font size=&quot;1&quot;&gt;&lt;b style=&quot;font-size: 12px;&quot;&gt;Data&lt;br&gt;Requirements&lt;br&gt;&lt;/b&gt;&lt;/font&gt;" style="text;html=1;strokeColor=none;fillColor=none;align=left;verticalAlign=middle;whiteSpace=wrap;rounded=0;fontSize=11;fontFamily=Helvetica;fontColor=#FFFFFF;container=0;fontStyle=0" parent="O5-8CPs11LgDphCisBiJ-3" vertex="1">
          <mxGeometry y="191" width="60" height="30" as="geometry" />
        </mxCell>
        <mxCell id="4REqOIB7tcGAyymllORO-104" value="&lt;font&gt;&lt;b&gt;data-key:&lt;/b&gt;&lt;/font&gt;" style="rounded=1;whiteSpace=wrap;html=1;strokeColor=#DB918D;fontFamily=Helvetica;fontSize=12;fontColor=#FFFFFF;fillColor=none;arcSize=50;fontStyle=0;shadow=0;labelBackgroundColor=none;align=center;verticalAlign=middle;strokeWidth=3;container=0;" parent="O5-8CPs11LgDphCisBiJ-3" vertex="1">
          <mxGeometry x="262.06999999999994" y="210" width="70.41" height="30" as="geometry" />
        </mxCell>
        <mxCell id="4REqOIB7tcGAyymllORO-112" style="edgeStyle=orthogonalEdgeStyle;shape=connector;curved=0;rounded=1;orthogonalLoop=1;jettySize=auto;html=1;entryX=0;entryY=0.5;entryDx=0;entryDy=0;labelBackgroundColor=default;strokeColor=#DB918D;strokeWidth=3;align=center;verticalAlign=middle;fontFamily=Helvetica;fontSize=11;fontColor=#FFFFFF;startArrow=none;startFill=0;endArrow=openThin;endFill=0;fontStyle=0" parent="O5-8CPs11LgDphCisBiJ-3" source="4REqOIB7tcGAyymllORO-70" target="4REqOIB7tcGAyymllORO-104" edge="1">
          <mxGeometry relative="1" as="geometry" />
        </mxCell>
        <mxCell id="4REqOIB7tcGAyymllORO-105" value="&lt;b style=&quot;border-color: var(--border-color);&quot;&gt;&lt;font style=&quot;border-color: var(--border-color);&quot;&gt;Output&lt;/font&gt;&lt;/b&gt;" style="rounded=1;whiteSpace=wrap;html=1;strokeColor=#DB918D;fontFamily=Helvetica;fontSize=12;fontColor=#FFFFFF;fillColor=none;arcSize=0;fontStyle=0;shadow=0;labelBackgroundColor=none;container=0;strokeWidth=3;" parent="O5-8CPs11LgDphCisBiJ-3" vertex="1">
          <mxGeometry x="73.56999999999994" y="257" width="55" height="30" as="geometry" />
        </mxCell>
        <mxCell id="4REqOIB7tcGAyymllORO-125" style="edgeStyle=orthogonalEdgeStyle;shape=connector;curved=0;rounded=1;orthogonalLoop=1;jettySize=auto;html=1;exitX=1;exitY=0.5;exitDx=0;exitDy=0;labelBackgroundColor=default;strokeColor=#DB918D;strokeWidth=3;align=center;verticalAlign=middle;fontFamily=Helvetica;fontSize=11;fontColor=#FFFFFF;startArrow=none;startFill=0;endArrow=openThin;endFill=0;fontStyle=0" parent="O5-8CPs11LgDphCisBiJ-3" source="4REqOIB7tcGAyymllORO-106" edge="1">
          <mxGeometry relative="1" as="geometry">
            <mxPoint x="512.0699999999999" y="271.9310344827586" as="targetPoint" />
            <Array as="points">
              <mxPoint x="372.06999999999994" y="272" />
              <mxPoint x="372.06999999999994" y="297" />
              <mxPoint x="482.06999999999994" y="297" />
              <mxPoint x="482.06999999999994" y="272" />
            </Array>
          </mxGeometry>
        </mxCell>
        <mxCell id="4REqOIB7tcGAyymllORO-106" value="&lt;font&gt;&lt;b&gt;Count&lt;/b&gt;&lt;/font&gt;" style="rounded=1;whiteSpace=wrap;html=1;strokeColor=#DB918D;fontFamily=Helvetica;fontSize=12;fontColor=#FFFFFF;fillColor=none;arcSize=0;fontStyle=0;shadow=0;labelBackgroundColor=none;container=0;strokeWidth=3;" parent="O5-8CPs11LgDphCisBiJ-3" vertex="1">
          <mxGeometry x="276.06999999999994" y="257" width="70" height="30" as="geometry" />
        </mxCell>
        <mxCell id="4REqOIB7tcGAyymllORO-123" style="edgeStyle=orthogonalEdgeStyle;shape=connector;curved=0;rounded=1;orthogonalLoop=1;jettySize=auto;html=1;exitX=1;exitY=0.5;exitDx=0;exitDy=0;labelBackgroundColor=default;strokeColor=#DB918D;strokeWidth=3;align=center;verticalAlign=middle;fontFamily=Helvetica;fontSize=11;fontColor=#FFFFFF;startArrow=none;startFill=0;endArrow=openThin;endFill=0;fontStyle=0" parent="O5-8CPs11LgDphCisBiJ-3" source="4REqOIB7tcGAyymllORO-107" edge="1">
          <mxGeometry relative="1" as="geometry">
            <mxPoint x="512.0699999999999" y="271.9710144927535" as="targetPoint" />
          </mxGeometry>
        </mxCell>
        <mxCell id="4REqOIB7tcGAyymllORO-107" value="&lt;font&gt;&lt;b&gt;Timeout&lt;/b&gt;&lt;/font&gt;" style="rounded=1;whiteSpace=wrap;html=1;strokeColor=#DB918D;fontFamily=Helvetica;fontSize=12;fontColor=#FFFFFF;fillColor=none;arcSize=0;fontStyle=0;shadow=0;labelBackgroundColor=none;container=0;strokeWidth=3;" parent="O5-8CPs11LgDphCisBiJ-3" vertex="1">
          <mxGeometry x="394.06999999999994" y="257" width="70" height="30" as="geometry" />
        </mxCell>
        <mxCell id="4REqOIB7tcGAyymllORO-122" style="edgeStyle=orthogonalEdgeStyle;shape=connector;curved=0;rounded=1;orthogonalLoop=1;jettySize=auto;html=1;exitX=1;exitY=0.5;exitDx=0;exitDy=0;entryX=0;entryY=0.5;entryDx=0;entryDy=0;labelBackgroundColor=default;strokeColor=#DB918D;strokeWidth=3;align=center;verticalAlign=middle;fontFamily=Helvetica;fontSize=11;fontColor=#FFFFFF;startArrow=none;startFill=0;endArrow=openThin;endFill=0;fontStyle=0" parent="O5-8CPs11LgDphCisBiJ-3" source="4REqOIB7tcGAyymllORO-106" target="4REqOIB7tcGAyymllORO-107" edge="1">
          <mxGeometry relative="1" as="geometry" />
        </mxCell>
        <mxCell id="4REqOIB7tcGAyymllORO-114" style="edgeStyle=orthogonalEdgeStyle;shape=connector;curved=0;rounded=1;orthogonalLoop=1;jettySize=auto;html=1;exitX=1;exitY=0.5;exitDx=0;exitDy=0;labelBackgroundColor=default;strokeColor=#DB918D;strokeWidth=3;align=center;verticalAlign=middle;fontFamily=Helvetica;fontSize=11;fontColor=#FFFFFF;startArrow=none;startFill=0;endArrow=openThin;endFill=0;entryX=-0.013;entryY=0.943;entryDx=0;entryDy=0;entryPerimeter=0;fontStyle=0" parent="O5-8CPs11LgDphCisBiJ-3" source="4REqOIB7tcGAyymllORO-111" edge="1">
          <mxGeometry relative="1" as="geometry">
            <mxPoint x="512.51" y="225.07999999999993" as="targetPoint" />
          </mxGeometry>
        </mxCell>
        <mxCell id="4REqOIB7tcGAyymllORO-111" value="&lt;font&gt;&lt;b&gt;Properties&lt;/b&gt;&lt;/font&gt;" style="rounded=1;whiteSpace=wrap;html=1;strokeColor=#DB918D;fontFamily=Helvetica;fontSize=12;fontColor=#FFFFFF;fillColor=none;arcSize=0;fontStyle=0;shadow=0;labelBackgroundColor=none;container=0;strokeWidth=3;" parent="O5-8CPs11LgDphCisBiJ-3" vertex="1">
          <mxGeometry x="392.06999999999994" y="210" width="70" height="30" as="geometry" />
        </mxCell>
        <mxCell id="4REqOIB7tcGAyymllORO-113" style="edgeStyle=orthogonalEdgeStyle;shape=connector;curved=0;rounded=1;orthogonalLoop=1;jettySize=auto;html=1;exitX=1;exitY=0.5;exitDx=0;exitDy=0;entryX=0;entryY=0.5;entryDx=0;entryDy=0;labelBackgroundColor=default;strokeColor=#DB918D;strokeWidth=3;align=center;verticalAlign=middle;fontFamily=Helvetica;fontSize=11;fontColor=#FFFFFF;startArrow=none;startFill=0;endArrow=openThin;endFill=0;fontStyle=0" parent="O5-8CPs11LgDphCisBiJ-3" source="4REqOIB7tcGAyymllORO-104" target="4REqOIB7tcGAyymllORO-111" edge="1">
          <mxGeometry relative="1" as="geometry" />
        </mxCell>
        <mxCell id="4REqOIB7tcGAyymllORO-116" style="edgeStyle=orthogonalEdgeStyle;shape=connector;curved=0;rounded=0;orthogonalLoop=1;jettySize=auto;html=1;labelBackgroundColor=default;strokeColor=#DB918D;strokeWidth=3;align=center;verticalAlign=middle;fontFamily=Helvetica;fontSize=11;fontColor=#FFFFFF;endArrow=none;endFill=0;startArrow=openThin;startFill=0;fontStyle=0" parent="O5-8CPs11LgDphCisBiJ-3" edge="1">
          <mxGeometry relative="1" as="geometry">
            <mxPoint x="2.07000000000005" y="272" as="targetPoint" />
            <mxPoint x="72.06999999999994" y="272" as="sourcePoint" />
          </mxGeometry>
        </mxCell>
        <mxCell id="4REqOIB7tcGAyymllORO-117" value="&lt;font size=&quot;1&quot;&gt;&lt;b style=&quot;font-size: 12px;&quot;&gt;Properties&lt;br&gt;&lt;/b&gt;&lt;/font&gt;" style="text;html=1;strokeColor=none;fillColor=none;align=left;verticalAlign=middle;whiteSpace=wrap;rounded=0;fontSize=11;fontFamily=Helvetica;fontColor=#FFFFFF;container=0;fontStyle=0" parent="O5-8CPs11LgDphCisBiJ-3" vertex="1">
          <mxGeometry y="247" width="60" height="30" as="geometry" />
        </mxCell>
        <mxCell id="4REqOIB7tcGAyymllORO-119" value="" style="edgeStyle=orthogonalEdgeStyle;shape=connector;curved=0;rounded=1;orthogonalLoop=1;jettySize=auto;html=1;labelBackgroundColor=default;strokeColor=#DB918D;strokeWidth=3;align=center;verticalAlign=middle;fontFamily=Helvetica;fontSize=11;fontColor=#FFFFFF;startArrow=none;startFill=0;endArrow=openThin;endFill=0;fontStyle=0" parent="O5-8CPs11LgDphCisBiJ-3" source="4REqOIB7tcGAyymllORO-105" target="4REqOIB7tcGAyymllORO-102" edge="1">
          <mxGeometry relative="1" as="geometry">
            <mxPoint x="129.06999999999994" y="272" as="sourcePoint" />
            <mxPoint x="242.06999999999994" y="272" as="targetPoint" />
          </mxGeometry>
        </mxCell>
        <mxCell id="4REqOIB7tcGAyymllORO-124" style="edgeStyle=orthogonalEdgeStyle;shape=connector;curved=0;rounded=1;orthogonalLoop=1;jettySize=auto;html=1;exitX=1;exitY=0.5;exitDx=0;exitDy=0;entryX=0;entryY=0.5;entryDx=0;entryDy=0;labelBackgroundColor=default;strokeColor=#DB918D;strokeWidth=3;align=center;verticalAlign=middle;fontFamily=Helvetica;fontSize=11;fontColor=#FFFFFF;startArrow=none;startFill=0;endArrow=openThin;endFill=0;fontStyle=0" parent="O5-8CPs11LgDphCisBiJ-3" source="4REqOIB7tcGAyymllORO-102" target="4REqOIB7tcGAyymllORO-107" edge="1">
          <mxGeometry relative="1" as="geometry">
            <Array as="points">
              <mxPoint x="252.06999999999994" y="272" />
              <mxPoint x="252.06999999999994" y="297" />
              <mxPoint x="362.06999999999994" y="297" />
              <mxPoint x="362.06999999999994" y="272" />
            </Array>
          </mxGeometry>
        </mxCell>
        <mxCell id="4REqOIB7tcGAyymllORO-102" value="&lt;font&gt;&lt;b&gt;Required&lt;/b&gt;&lt;/font&gt;" style="rounded=1;whiteSpace=wrap;html=1;strokeColor=#DB918D;fontFamily=Helvetica;fontSize=12;fontColor=#FFFFFF;fillColor=none;arcSize=0;fontStyle=0;shadow=0;labelBackgroundColor=none;container=0;strokeWidth=3;" parent="O5-8CPs11LgDphCisBiJ-3" vertex="1">
          <mxGeometry x="168.06999999999994" y="257" width="70" height="30" as="geometry" />
        </mxCell>
        <mxCell id="4REqOIB7tcGAyymllORO-118" value="" style="edgeStyle=orthogonalEdgeStyle;shape=connector;curved=0;rounded=1;orthogonalLoop=1;jettySize=auto;html=1;labelBackgroundColor=default;strokeColor=#DB918D;strokeWidth=3;align=center;verticalAlign=middle;fontFamily=Helvetica;fontSize=11;fontColor=#FFFFFF;startArrow=none;startFill=0;endArrow=openThin;endFill=0;fontStyle=0" parent="O5-8CPs11LgDphCisBiJ-3" source="4REqOIB7tcGAyymllORO-102" target="4REqOIB7tcGAyymllORO-106" edge="1">
          <mxGeometry relative="1" as="geometry" />
        </mxCell>
        <mxCell id="4REqOIB7tcGAyymllORO-163" style="edgeStyle=orthogonalEdgeStyle;shape=connector;curved=0;rounded=0;orthogonalLoop=1;jettySize=auto;html=1;labelBackgroundColor=default;strokeColor=#DB918D;strokeWidth=3;align=center;verticalAlign=middle;fontFamily=Helvetica;fontSize=11;fontColor=#FFFFFF;endArrow=none;endFill=0;startArrow=openThin;startFill=0;exitX=0;exitY=0.5;exitDx=0;exitDy=0;fontStyle=0" parent="O5-8CPs11LgDphCisBiJ-3" source="4REqOIB7tcGAyymllORO-165" edge="1">
          <mxGeometry relative="1" as="geometry">
            <mxPoint x="266.06999999999994" y="331" as="targetPoint" />
            <mxPoint x="326.06999999999994" y="332" as="sourcePoint" />
            <Array as="points">
              <mxPoint x="268.06999999999994" y="331" />
            </Array>
          </mxGeometry>
        </mxCell>
        <mxCell id="4REqOIB7tcGAyymllORO-164" value="&lt;font size=&quot;1&quot;&gt;&lt;b style=&quot;font-size: 12px;&quot;&gt;Required&lt;br&gt;&lt;/b&gt;&lt;/font&gt;" style="text;html=1;strokeColor=#DB918D;fillColor=none;align=left;verticalAlign=middle;whiteSpace=wrap;rounded=0;fontSize=11;fontFamily=Helvetica;fontColor=#FFFFFF;container=0;fontStyle=0" parent="O5-8CPs11LgDphCisBiJ-3" vertex="1">
          <mxGeometry x="267.76" y="310" width="60" height="20" as="geometry" />
        </mxCell>
        <mxCell id="4REqOIB7tcGAyymllORO-165" value="&lt;font&gt;&lt;b&gt;required:&lt;/b&gt;&lt;/font&gt;" style="rounded=1;whiteSpace=wrap;html=1;strokeColor=#DB918D;fontFamily=Helvetica;fontSize=12;fontColor=#FFFFFF;fillColor=none;arcSize=50;fontStyle=0;shadow=0;labelBackgroundColor=none;align=center;verticalAlign=middle;strokeWidth=3;container=0;" parent="O5-8CPs11LgDphCisBiJ-3" vertex="1">
          <mxGeometry x="334.0799999999999" y="316" width="67.99" height="30" as="geometry" />
        </mxCell>
        <mxCell id="4REqOIB7tcGAyymllORO-168" style="edgeStyle=orthogonalEdgeStyle;shape=connector;curved=0;rounded=1;orthogonalLoop=1;jettySize=auto;html=1;exitX=1;exitY=0.5;exitDx=0;exitDy=0;labelBackgroundColor=default;strokeColor=#DB918D;strokeWidth=3;align=center;verticalAlign=middle;fontFamily=Helvetica;fontSize=11;fontColor=#FFFFFF;startArrow=none;startFill=0;endArrow=openThin;endFill=0;fontStyle=0" parent="O5-8CPs11LgDphCisBiJ-3" source="4REqOIB7tcGAyymllORO-166" edge="1">
          <mxGeometry relative="1" as="geometry">
            <mxPoint x="512.0699999999999" y="331" as="targetPoint" />
          </mxGeometry>
        </mxCell>
        <mxCell id="4REqOIB7tcGAyymllORO-166" value="&lt;b style=&quot;border-color: var(--border-color);&quot;&gt;&lt;font style=&quot;border-color: var(--border-color);&quot;&gt;Boolean&lt;/font&gt;&lt;/b&gt;" style="ellipse;whiteSpace=wrap;html=1;rounded=1;labelBackgroundColor=none;strokeColor=#DB918D;fontFamily=Helvetica;fontSize=12;fontColor=#FFFFFF;fillColor=none;container=0;strokeWidth=3;fontStyle=0" parent="O5-8CPs11LgDphCisBiJ-3" vertex="1">
          <mxGeometry x="420.06999999999994" y="316" width="70" height="30" as="geometry" />
        </mxCell>
        <mxCell id="4REqOIB7tcGAyymllORO-167" value="" style="edgeStyle=orthogonalEdgeStyle;shape=connector;curved=0;rounded=1;orthogonalLoop=1;jettySize=auto;html=1;labelBackgroundColor=default;strokeColor=#DB918D;strokeWidth=3;align=center;verticalAlign=middle;fontFamily=Helvetica;fontSize=11;fontColor=#FFFFFF;startArrow=none;startFill=0;endArrow=openThin;endFill=0;fontStyle=0" parent="O5-8CPs11LgDphCisBiJ-3" source="4REqOIB7tcGAyymllORO-165" target="4REqOIB7tcGAyymllORO-166" edge="1">
          <mxGeometry relative="1" as="geometry">
            <Array as="points">
              <mxPoint x="406.06999999999994" y="331" />
              <mxPoint x="406.06999999999994" y="331" />
            </Array>
          </mxGeometry>
        </mxCell>
        <mxCell id="4REqOIB7tcGAyymllORO-172" style="edgeStyle=orthogonalEdgeStyle;shape=connector;curved=0;rounded=0;orthogonalLoop=1;jettySize=auto;html=1;labelBackgroundColor=default;strokeColor=#DB918D;strokeWidth=3;align=center;verticalAlign=middle;fontFamily=Helvetica;fontSize=11;fontColor=#FFFFFF;endArrow=none;endFill=0;startArrow=openThin;startFill=0;exitX=0;exitY=0.5;exitDx=0;exitDy=0;fontStyle=0" parent="O5-8CPs11LgDphCisBiJ-3" source="4REqOIB7tcGAyymllORO-174" edge="1">
          <mxGeometry relative="1" as="geometry">
            <mxPoint x="266.3799999999999" y="376" as="targetPoint" />
            <mxPoint x="326.3799999999999" y="377" as="sourcePoint" />
            <Array as="points">
              <mxPoint x="268.3799999999999" y="376" />
            </Array>
          </mxGeometry>
        </mxCell>
        <mxCell id="4REqOIB7tcGAyymllORO-173" value="&lt;font size=&quot;1&quot;&gt;&lt;b style=&quot;font-size: 12px;&quot;&gt;Count&lt;br&gt;&lt;/b&gt;&lt;/font&gt;" style="text;html=1;strokeColor=#DB918D;fillColor=none;align=left;verticalAlign=middle;whiteSpace=wrap;rounded=0;fontSize=11;fontFamily=Helvetica;fontColor=#FFFFFF;container=0;fontStyle=0" parent="O5-8CPs11LgDphCisBiJ-3" vertex="1">
          <mxGeometry x="268.06999999999994" y="355" width="60" height="20" as="geometry" />
        </mxCell>
        <mxCell id="4REqOIB7tcGAyymllORO-174" value="&lt;font&gt;&lt;b&gt;count:&lt;/b&gt;&lt;/font&gt;" style="rounded=1;whiteSpace=wrap;html=1;strokeColor=#DB918D;fontFamily=Helvetica;fontSize=12;fontColor=#FFFFFF;fillColor=none;arcSize=50;fontStyle=0;shadow=0;labelBackgroundColor=none;align=center;verticalAlign=middle;strokeWidth=3;container=0;" parent="O5-8CPs11LgDphCisBiJ-3" vertex="1">
          <mxGeometry x="334.3899999999999" y="361" width="67.99" height="30" as="geometry" />
        </mxCell>
        <mxCell id="4REqOIB7tcGAyymllORO-175" style="edgeStyle=orthogonalEdgeStyle;shape=connector;curved=0;rounded=1;orthogonalLoop=1;jettySize=auto;html=1;exitX=1;exitY=0.5;exitDx=0;exitDy=0;labelBackgroundColor=default;strokeColor=#DB918D;strokeWidth=3;align=center;verticalAlign=middle;fontFamily=Helvetica;fontSize=11;fontColor=#FFFFFF;startArrow=none;startFill=0;endArrow=openThin;endFill=0;fontStyle=0" parent="O5-8CPs11LgDphCisBiJ-3" source="4REqOIB7tcGAyymllORO-176" edge="1">
          <mxGeometry relative="1" as="geometry">
            <mxPoint x="512.3799999999999" y="376" as="targetPoint" />
          </mxGeometry>
        </mxCell>
        <mxCell id="4REqOIB7tcGAyymllORO-176" value="&lt;b style=&quot;border-color: var(--border-color);&quot;&gt;&lt;font style=&quot;border-color: var(--border-color);&quot;&gt;Integer&lt;/font&gt;&lt;/b&gt;" style="ellipse;whiteSpace=wrap;html=1;rounded=1;labelBackgroundColor=none;strokeColor=#DB918D;fontFamily=Helvetica;fontSize=12;fontColor=#FFFFFF;fillColor=none;container=0;strokeWidth=3;fontStyle=0" parent="O5-8CPs11LgDphCisBiJ-3" vertex="1">
          <mxGeometry x="420.3799999999999" y="361" width="70" height="30" as="geometry" />
        </mxCell>
        <mxCell id="4REqOIB7tcGAyymllORO-177" value="" style="edgeStyle=orthogonalEdgeStyle;shape=connector;curved=0;rounded=1;orthogonalLoop=1;jettySize=auto;html=1;labelBackgroundColor=default;strokeColor=#DB918D;strokeWidth=3;align=center;verticalAlign=middle;fontFamily=Helvetica;fontSize=11;fontColor=#FFFFFF;startArrow=none;startFill=0;endArrow=openThin;endFill=0;fontStyle=0" parent="O5-8CPs11LgDphCisBiJ-3" source="4REqOIB7tcGAyymllORO-174" target="4REqOIB7tcGAyymllORO-176" edge="1">
          <mxGeometry relative="1" as="geometry">
            <Array as="points">
              <mxPoint x="406.3799999999999" y="376" />
              <mxPoint x="406.3799999999999" y="376" />
            </Array>
          </mxGeometry>
        </mxCell>
        <mxCell id="4REqOIB7tcGAyymllORO-186" style="edgeStyle=orthogonalEdgeStyle;shape=connector;curved=0;rounded=0;orthogonalLoop=1;jettySize=auto;html=1;labelBackgroundColor=default;strokeColor=#DB918D;strokeWidth=3;align=center;verticalAlign=middle;fontFamily=Helvetica;fontSize=11;fontColor=#FFFFFF;endArrow=none;endFill=0;startArrow=openThin;startFill=0;exitX=0;exitY=0.5;exitDx=0;exitDy=0;fontStyle=0" parent="O5-8CPs11LgDphCisBiJ-3" source="4REqOIB7tcGAyymllORO-188" edge="1">
          <mxGeometry relative="1" as="geometry">
            <mxPoint x="266.3799999999999" y="420" as="targetPoint" />
            <mxPoint x="326.3799999999999" y="421" as="sourcePoint" />
            <Array as="points">
              <mxPoint x="268.3799999999999" y="420" />
            </Array>
          </mxGeometry>
        </mxCell>
        <mxCell id="4REqOIB7tcGAyymllORO-187" value="&lt;font size=&quot;1&quot;&gt;&lt;b style=&quot;font-size: 12px;&quot;&gt;Timeout&lt;br&gt;&lt;/b&gt;&lt;/font&gt;" style="text;html=1;strokeColor=#DB918D;fillColor=none;align=left;verticalAlign=middle;whiteSpace=wrap;rounded=0;fontSize=11;fontFamily=Helvetica;fontColor=#FFFFFF;container=0;fontStyle=0" parent="O5-8CPs11LgDphCisBiJ-3" vertex="1">
          <mxGeometry x="268.06999999999994" y="399" width="60" height="20" as="geometry" />
        </mxCell>
        <mxCell id="4REqOIB7tcGAyymllORO-188" value="&lt;font&gt;&lt;b&gt;timeout:&lt;/b&gt;&lt;/font&gt;" style="rounded=1;whiteSpace=wrap;html=1;strokeColor=#DB918D;fontFamily=Helvetica;fontSize=12;fontColor=#FFFFFF;fillColor=none;arcSize=50;fontStyle=0;shadow=0;labelBackgroundColor=none;align=center;verticalAlign=middle;strokeWidth=3;container=0;" parent="O5-8CPs11LgDphCisBiJ-3" vertex="1">
          <mxGeometry x="334.3899999999999" y="405" width="67.99" height="30" as="geometry" />
        </mxCell>
        <mxCell id="4REqOIB7tcGAyymllORO-189" style="edgeStyle=orthogonalEdgeStyle;shape=connector;curved=0;rounded=1;orthogonalLoop=1;jettySize=auto;html=1;exitX=1;exitY=0.5;exitDx=0;exitDy=0;labelBackgroundColor=default;strokeColor=#DB918D;strokeWidth=3;align=center;verticalAlign=middle;fontFamily=Helvetica;fontSize=11;fontColor=#FFFFFF;startArrow=none;startFill=0;endArrow=openThin;endFill=0;fontStyle=0" parent="O5-8CPs11LgDphCisBiJ-3" source="4REqOIB7tcGAyymllORO-190" edge="1">
          <mxGeometry relative="1" as="geometry">
            <mxPoint x="512.3799999999999" y="420" as="targetPoint" />
          </mxGeometry>
        </mxCell>
        <mxCell id="4REqOIB7tcGAyymllORO-190" value="&lt;b style=&quot;border-color: var(--border-color);&quot;&gt;&lt;font style=&quot;border-color: var(--border-color);&quot;&gt;Integer&lt;/font&gt;&lt;/b&gt;" style="ellipse;whiteSpace=wrap;html=1;rounded=1;labelBackgroundColor=none;strokeColor=#DB918D;fontFamily=Helvetica;fontSize=12;fontColor=#FFFFFF;fillColor=none;container=0;strokeWidth=3;fontStyle=0" parent="O5-8CPs11LgDphCisBiJ-3" vertex="1">
          <mxGeometry x="420.3799999999999" y="405" width="70" height="30" as="geometry" />
        </mxCell>
        <mxCell id="4REqOIB7tcGAyymllORO-191" value="" style="edgeStyle=orthogonalEdgeStyle;shape=connector;curved=0;rounded=1;orthogonalLoop=1;jettySize=auto;html=1;labelBackgroundColor=default;strokeColor=#DB918D;strokeWidth=3;align=center;verticalAlign=middle;fontFamily=Helvetica;fontSize=11;fontColor=#FFFFFF;startArrow=none;startFill=0;endArrow=openThin;endFill=0;fontStyle=0" parent="O5-8CPs11LgDphCisBiJ-3" source="4REqOIB7tcGAyymllORO-188" target="4REqOIB7tcGAyymllORO-190" edge="1">
          <mxGeometry relative="1" as="geometry">
            <Array as="points">
              <mxPoint x="406.3799999999999" y="420" />
              <mxPoint x="406.3799999999999" y="420" />
            </Array>
          </mxGeometry>
        </mxCell>
        <mxCell id="4REqOIB7tcGAyymllORO-152" style="edgeStyle=orthogonalEdgeStyle;shape=connector;curved=0;rounded=1;orthogonalLoop=1;jettySize=auto;html=1;exitX=1;exitY=0.5;exitDx=0;exitDy=0;labelBackgroundColor=default;strokeColor=#DB918D;strokeWidth=3;align=center;verticalAlign=middle;fontFamily=Helvetica;fontSize=11;fontColor=#FFFFFF;startArrow=none;startFill=0;endArrow=openThin;endFill=0;fontStyle=0" parent="O5-8CPs11LgDphCisBiJ-3" source="4REqOIB7tcGAyymllORO-74" edge="1">
          <mxGeometry relative="1" as="geometry">
            <mxPoint x="262.06999999999994" y="373" as="targetPoint" />
            <Array as="points">
              <mxPoint x="242.06999999999994" y="333" />
              <mxPoint x="242.06999999999994" y="373" />
            </Array>
          </mxGeometry>
        </mxCell>
        <mxCell id="4REqOIB7tcGAyymllORO-74" value="&lt;b style=&quot;border-color: var(--border-color);&quot;&gt;&lt;font style=&quot;border-color: var(--border-color);&quot;&gt;&quot;number&quot;&lt;/font&gt;&lt;/b&gt;" style="ellipse;whiteSpace=wrap;html=1;rounded=1;labelBackgroundColor=none;strokeColor=#DB918D;fontFamily=Helvetica;fontSize=12;fontColor=#FFFFFF;fillColor=none;container=0;strokeWidth=3;fontStyle=0" parent="O5-8CPs11LgDphCisBiJ-3" vertex="1">
          <mxGeometry x="154.06999999999994" y="318" width="70" height="30" as="geometry" />
        </mxCell>
        <mxCell id="4REqOIB7tcGAyymllORO-126" style="edgeStyle=orthogonalEdgeStyle;shape=connector;curved=0;rounded=0;orthogonalLoop=1;jettySize=auto;html=1;labelBackgroundColor=default;strokeColor=#DB918D;strokeWidth=3;align=center;verticalAlign=middle;fontFamily=Helvetica;fontSize=11;fontColor=#FFFFFF;endArrow=none;endFill=0;startArrow=openThin;startFill=0;fontStyle=0" parent="O5-8CPs11LgDphCisBiJ-3" edge="1">
          <mxGeometry relative="1" as="geometry">
            <mxPoint x="3.7600000000001046" y="374" as="targetPoint" />
            <mxPoint x="62.25999999999999" y="374" as="sourcePoint" />
          </mxGeometry>
        </mxCell>
        <mxCell id="4REqOIB7tcGAyymllORO-127" value="&lt;font size=&quot;1&quot;&gt;&lt;b style=&quot;font-size: 12px;&quot;&gt;Output&lt;br&gt;&lt;/b&gt;&lt;/font&gt;" style="text;html=1;strokeColor=none;fillColor=none;align=left;verticalAlign=middle;whiteSpace=wrap;rounded=0;fontSize=11;fontFamily=Helvetica;fontColor=#FFFFFF;container=0;fontStyle=0" parent="O5-8CPs11LgDphCisBiJ-3" vertex="1">
          <mxGeometry x="3.9500000000000455" y="352" width="60" height="20" as="geometry" />
        </mxCell>
        <mxCell id="4REqOIB7tcGAyymllORO-148" style="edgeStyle=orthogonalEdgeStyle;shape=connector;curved=0;rounded=1;orthogonalLoop=1;jettySize=auto;html=1;exitX=1;exitY=0.5;exitDx=0;exitDy=0;entryX=0;entryY=0.5;entryDx=0;entryDy=0;labelBackgroundColor=default;strokeColor=#DB918D;strokeWidth=3;align=center;verticalAlign=middle;fontFamily=Helvetica;fontSize=11;fontColor=#FFFFFF;startArrow=none;startFill=0;endArrow=openThin;endFill=0;fontStyle=0" parent="O5-8CPs11LgDphCisBiJ-3" source="4REqOIB7tcGAyymllORO-128" target="4REqOIB7tcGAyymllORO-74" edge="1">
          <mxGeometry relative="1" as="geometry">
            <Array as="points">
              <mxPoint x="132.06999999999994" y="373" />
              <mxPoint x="132.06999999999994" y="333" />
            </Array>
          </mxGeometry>
        </mxCell>
        <mxCell id="4REqOIB7tcGAyymllORO-128" value="&lt;font&gt;&lt;b&gt;output:&lt;/b&gt;&lt;/font&gt;" style="rounded=1;whiteSpace=wrap;html=1;strokeColor=#DB918D;fontFamily=Helvetica;fontSize=12;fontColor=#FFFFFF;fillColor=none;arcSize=50;fontStyle=0;shadow=0;labelBackgroundColor=none;align=center;verticalAlign=middle;strokeWidth=3;container=0;" parent="O5-8CPs11LgDphCisBiJ-3" vertex="1">
          <mxGeometry x="64.27000000000021" y="358" width="57.99" height="30" as="geometry" />
        </mxCell>
        <mxCell id="4REqOIB7tcGAyymllORO-151" style="edgeStyle=orthogonalEdgeStyle;shape=connector;curved=0;rounded=1;orthogonalLoop=1;jettySize=auto;html=1;exitX=1;exitY=0.5;exitDx=0;exitDy=0;labelBackgroundColor=default;strokeColor=#DB918D;strokeWidth=3;align=center;verticalAlign=middle;fontFamily=Helvetica;fontSize=11;fontColor=#FFFFFF;startArrow=none;startFill=0;endArrow=openThin;endFill=0;fontStyle=0" parent="O5-8CPs11LgDphCisBiJ-3" source="4REqOIB7tcGAyymllORO-146" edge="1">
          <mxGeometry relative="1" as="geometry">
            <mxPoint x="262.06999999999994" y="373" as="targetPoint" />
          </mxGeometry>
        </mxCell>
        <mxCell id="4REqOIB7tcGAyymllORO-146" value="&lt;b style=&quot;border-color: var(--border-color);&quot;&gt;&lt;font style=&quot;border-color: var(--border-color);&quot;&gt;&quot;text&quot;&lt;/font&gt;&lt;/b&gt;" style="ellipse;whiteSpace=wrap;html=1;rounded=1;labelBackgroundColor=none;strokeColor=#DB918D;fontFamily=Helvetica;fontSize=12;fontColor=#FFFFFF;fillColor=none;container=0;strokeWidth=3;fontStyle=0" parent="O5-8CPs11LgDphCisBiJ-3" vertex="1">
          <mxGeometry x="154.06999999999994" y="358" width="70" height="30" as="geometry" />
        </mxCell>
        <mxCell id="4REqOIB7tcGAyymllORO-149" style="edgeStyle=orthogonalEdgeStyle;shape=connector;curved=0;rounded=1;orthogonalLoop=1;jettySize=auto;html=1;exitX=1;exitY=0.5;exitDx=0;exitDy=0;entryX=0;entryY=0.5;entryDx=0;entryDy=0;labelBackgroundColor=default;strokeColor=#DB918D;strokeWidth=3;align=center;verticalAlign=middle;fontFamily=Helvetica;fontSize=11;fontColor=#FFFFFF;startArrow=none;startFill=0;endArrow=openThin;endFill=0;fontStyle=0" parent="O5-8CPs11LgDphCisBiJ-3" source="4REqOIB7tcGAyymllORO-128" target="4REqOIB7tcGAyymllORO-146" edge="1">
          <mxGeometry relative="1" as="geometry" />
        </mxCell>
        <mxCell id="4REqOIB7tcGAyymllORO-153" style="edgeStyle=orthogonalEdgeStyle;shape=connector;curved=0;rounded=1;orthogonalLoop=1;jettySize=auto;html=1;exitX=1;exitY=0.5;exitDx=0;exitDy=0;labelBackgroundColor=default;strokeColor=#DB918D;strokeWidth=3;align=center;verticalAlign=middle;fontFamily=Helvetica;fontSize=11;fontColor=#FFFFFF;startArrow=none;startFill=0;endArrow=openThin;endFill=0;fontStyle=0" parent="O5-8CPs11LgDphCisBiJ-3" source="4REqOIB7tcGAyymllORO-147" edge="1">
          <mxGeometry relative="1" as="geometry">
            <mxPoint x="262.06999999999994" y="373" as="targetPoint" />
            <Array as="points">
              <mxPoint x="242.06999999999994" y="413" />
              <mxPoint x="242.06999999999994" y="373" />
            </Array>
          </mxGeometry>
        </mxCell>
        <mxCell id="4REqOIB7tcGAyymllORO-147" value="&lt;b style=&quot;border-color: var(--border-color);&quot;&gt;&lt;font style=&quot;border-color: var(--border-color);&quot;&gt;&quot;bool&quot;&lt;/font&gt;&lt;/b&gt;" style="ellipse;whiteSpace=wrap;html=1;rounded=1;labelBackgroundColor=none;strokeColor=#DB918D;fontFamily=Helvetica;fontSize=12;fontColor=#FFFFFF;fillColor=none;container=0;strokeWidth=3;fontStyle=0" parent="O5-8CPs11LgDphCisBiJ-3" vertex="1">
          <mxGeometry x="154.06999999999994" y="398" width="70" height="30" as="geometry" />
        </mxCell>
        <mxCell id="4REqOIB7tcGAyymllORO-150" style="edgeStyle=orthogonalEdgeStyle;shape=connector;curved=0;rounded=1;orthogonalLoop=1;jettySize=auto;html=1;exitX=1;exitY=0.5;exitDx=0;exitDy=0;entryX=0;entryY=0.5;entryDx=0;entryDy=0;labelBackgroundColor=default;strokeColor=#DB918D;strokeWidth=3;align=center;verticalAlign=middle;fontFamily=Helvetica;fontSize=11;fontColor=#FFFFFF;startArrow=none;startFill=0;endArrow=openThin;endFill=0;fontStyle=0" parent="O5-8CPs11LgDphCisBiJ-3" source="4REqOIB7tcGAyymllORO-128" target="4REqOIB7tcGAyymllORO-147" edge="1">
          <mxGeometry relative="1" as="geometry">
            <Array as="points">
              <mxPoint x="132.06999999999994" y="373" />
              <mxPoint x="132.06999999999994" y="413" />
            </Array>
          </mxGeometry>
        </mxCell>
      </root>
    </mxGraphModel>
  </diagram>
</mxfile>
